<?xml version="1.0" encoding="utf-8"?>
<!-- Generator: Adobe Illustrator 26.4.1, SVG Export Plug-In . SVG Version: 6.00 Build 0)  -->
<svg version="1.1" id="Capa_1" xmlns="http://www.w3.org/2000/svg" xmlns:xlink="http://www.w3.org/1999/xlink" x="0px" y="0px"
	 viewBox="0 0 576 576" style="enable-background:new 0 0 576 576;" xml:space="preserve">
<g>
	<path d="M454.15,245.52c-2.94,0.75-5.87,1.56-8.84,2.23c-1.16,0.26-2.45,0.45-3.59,0.25c-5.43-0.97-10.67-2.48-15.26-5.55
		c-3.49-2.34-5.92-5.34-6.19-9.54c-0.43-6.72,6.01-11.58,13-9.84c3.51,0.87,6.49,2.69,9.22,4.86c5.24,4.18,9.54,9.17,13.43,14.49
		c0.27,0.37,0.49,0.77,0.69,1.18c0.84,1.69,0.35,2.38-1.65,2.34c-0.24,0-0.47,0-0.71,0C454.22,245.79,454.19,245.65,454.15,245.52z"
		/>
	<path d="M479.63,216.76c1.46,0.47,2.4,0.74,3.31,1.07c7.97,2.89,13.02,11.02,11.98,19.25c-1,7.92-7.7,14.29-16.16,15.37
		c-8.61,1.09-17.04-4.19-19.77-12.37c-3.03-9.12,1.72-18.7,11.05-22.21c0.98-0.37,2.04-0.92,3.03-0.85
		c2.52,0.16,4.09-1.09,5.78-2.61c2.95-2.65,6.65-3.74,10.69-3.73c0.4,0,0.79,0.56,1.19,0.87c-0.43,0.4-0.8,1.01-1.31,1.15
		c-1.96,0.56-4.04,0.79-5.93,1.49C482.19,214.66,481.15,215.71,479.63,216.76z M491.99,230.14c-1.18,0.72-2.03,1.19-2.83,1.73
		c-1.98,1.34-3.97,1.65-6.31,0.69c-3.51-1.44-7.09-2.77-10.72-3.92c-3.3-1.04-6.05,0.02-7.98,2.77c-2.49,3.57-2.45,7.32-0.56,11.05
		c4.34,8.54,16.75,10.38,24.01,3.51C492.13,241.7,493.61,236.53,491.99,230.14z"/>
	<path d="M477.18,263.92c0-2.2-0.03-4.2,0.01-6.21c0.02-0.9,0.5-1.39,1.57-1.39c8.09,0.02,16.17,0.02,24.26,0
		c1.15,0,1.58,0.5,1.58,1.53c-0.01,6.79-0.01,13.58,0,20.38c0,1.14-0.6,1.61-1.76,1.6c-7.97-0.01-15.93-0.01-23.9-0.02
		c-1.06,0-1.68-0.44-1.64-1.52c0-0.11,0-0.22,0-0.34c0.04-1.45-0.44-3.26,0.29-4.25c0.54-0.73,2.66-0.41,4.08-0.54
		c2.74-0.26,4.76-1.73,5.24-3.82c0.4-1.74-0.64-3.87-2.48-4.81c-0.7-0.35-1.55-0.54-2.34-0.59
		C480.61,263.86,479.14,263.92,477.18,263.92z M491.07,262.07c0,0.01,0,0.02,0,0.02c1.24,0,2.47-0.03,3.71,0.01
		c1.14,0.04,2-0.5,1.87-1.49c-0.08-0.59-1.04-1.49-1.65-1.52c-2.69-0.16-5.41-0.14-8.11,0.03c-0.61,0.04-1.16,0.96-1.74,1.47
		c0.62,0.49,1.18,1.29,1.87,1.41C488.34,262.23,489.72,262.07,491.07,262.07z"/>
	<path d="M454.92,236.28c-5.86-6.87-11.6-13.21-20.41-15.84c0.96-6.72,5.23-10.58,11.33-10.28c3.46,0.17,6.39,1.55,8.7,3.97
		c1.02,1.07,1.84,2.32,2.67,3.54c1.59,2.34,2.37,4.53,0.33,7.28c-1.98,2.68-2.4,6.05-2.52,9.34
		C455,234.82,454.97,235.36,454.92,236.28z"/>
	<path d="M453.49,248.67c2.51,11.32,8.02,19.7,19.68,23.68c-2.04,2.18-4.18,4.04-6.76,5.37c-0.34,0.17-1.04-0.03-1.44-0.27
		c-10.15-6.02-16.05-14.8-18.34-25.86c-0.08-0.4,0.28-1.2,0.6-1.3C449.28,249.68,451.36,249.21,453.49,248.67z"/>
	<path d="M169.84,256.76c3.62-0.87,5.75,0.48,7.63,3.27c3.83,5.68,7.97,11.13,11.99,16.66c0.57,0.79,1.22,1.52,1.83,2.27
		c0.25-0.07,0.49-0.14,0.74-0.21c0-1.26,0-2.52,0-3.78c0-5.52,0.05-11.05-0.01-16.57c-0.03-2.25,1.39-2.09,2.73-1.92
		c1.3,0.16,3.36-0.94,3.35,1.86c-0.01,10.66,0,21.33,0,31.89c-3.87,1.51-5.35,1.08-7.59-2.02c-4.07-5.61-8.15-11.22-12.24-16.81
		c-0.63-0.86-1.32-1.68-2.61-2.36c0,4.06,0,8.12,0,12.18c0,2.15-0.16,4.32,0.05,6.46c0.27,2.77-0.79,3.78-3.37,3.37
		c-0.78-0.12-1.59-0.14-2.49-0.22C169.84,279.37,169.84,268.09,169.84,256.76z"/>
	<path d="M163.55,273.79c0.15,9.88-7.51,17.77-17.43,17.97c-9.54,0.19-17.37-7.65-17.53-17.54c-0.16-10.18,7.33-18.3,16.97-18.39
		C155.71,255.72,163.4,263.4,163.55,273.79z M157.42,274.03c0.11-6.88-4.66-12.23-11.07-12.42c-6.5-0.19-11.66,5.13-11.69,12.06
		c-0.03,6.87,4.78,12.14,11.21,12.27C152.25,286.07,157.32,280.85,157.42,274.03z"/>
	<path d="M314.03,278.56c2.99,3.98,5.91,7.85,8.87,11.79c-4.55,1.55-6.38,1.05-8.87-2.31c-1.38-1.86-2.99-3.58-4.05-5.62
		c-1.84-3.54-4.57-4.05-8.31-3.11c0,2.48,0,5.06,0,7.65c0,4.19-0.01,4.2-3.99,4.09c-0.53-0.01-1.06-0.1-1.8-0.17
		c-0.08-0.88-0.21-1.68-0.21-2.48c-0.04-9.65,0-19.29-0.12-28.94c-0.03-2.23,0.47-3.19,2.84-3.07c3.88,0.2,7.77,0.04,11.66,0.07
		c6.2,0.05,10.41,3.11,11.65,8.42c1.33,5.68-0.87,9.85-6.86,13C314.68,277.97,314.56,278.12,314.03,278.56z M301.73,273.34
		c3.39,0,6.65,0.26,9.84-0.08c2.82-0.3,4.45-2.87,4.34-5.87c-0.11-2.94-1.77-5.1-4.6-5.31c-3.12-0.24-6.27-0.05-9.58-0.05
		C301.73,265.93,301.73,269.62,301.73,273.34z"/>
	<path d="M100.76,270.81c5.37,0,10.38,0,15.69,0c0-4.67,0-9.22,0-13.88c0.86-0.18,1.45-0.38,2.06-0.4c3.97-0.16,4-0.13,4,4.09
		c0.02,8.9,0.03,17.8,0.03,26.71c0,3.93-0.13,4.05-3.98,3.7c-0.53-0.05-1.06-0.16-1.86-0.29c0-4.58,0-9.13,0-13.9
		c-5.37,0-10.46,0-15.83,0c0,4.62,0,9.16,0,14.07c-2.02,0.1-3.77,0.19-5.83,0.29c0-11.63,0-22.99,0-34.41
		c0.21-0.08,0.45-0.25,0.7-0.27c5.03-0.28,5.02-0.28,5.01,4.92C100.76,264.51,100.76,267.57,100.76,270.81z"/>
	<path d="M360.14,290.4c-4.37,1.72-6.05,1.25-7.46-2.83c-1.04-3-2.62-3.93-5.59-3.66c-3.32,0.3-6.69,0.19-10.03,0.05
		c-1.73-0.08-2.74,0.49-3.18,2.2c-0.05,0.18-0.14,0.35-0.21,0.52c-2.18,5.03-2.18,5.03-7.95,3.95c0.08-0.41,0.1-0.85,0.26-1.22
		c4.28-10.12,8.59-20.22,12.86-30.34c0.69-1.62,1.33-2.95,3.5-2.7c2.12,0.25,4.09-0.17,5.21,2.72
		C351.58,269.59,355.91,279.97,360.14,290.4z M337.32,278.33c3.98,0,7.51,0,11.53,0c-1.88-4.72-3.63-9.11-5.38-13.5
		c-0.23,0.01-0.46,0.02-0.69,0.03C341,269.24,339.22,273.63,337.32,278.33z"/>
	<path d="M211.63,261.92c0,3.13,0,5.9,0,9.08c5.17,0,10.35,0,15.7,0c0,1.95,0,3.5,0,5.43c-5.18,0-10.29,0-15.65,0c0,3.19,0,6,0,9.22
		c4.52,0,8.93,0,13.34,0c4.35,0,4.35,0.01,3.83,5.1c-7.64,0-15.33,0-23.32,0c0-1.3,0-2.5,0-3.7c-0.01-9.27,0.03-18.55-0.07-27.82
		c-0.02-2.09,0.58-2.78,2.61-2.75c6.24,0.1,12.48,0.09,18.72,0c1.89-0.03,2.53,0.62,2.49,2.59c-0.04,1.96-0.53,2.93-2.62,2.89
		C221.7,261.85,216.75,261.92,211.63,261.92z"/>
	<path d="M426.54,290.36c-4.54,1.59-7.08,0.95-9.79-2.34c-3.05-3.7-6.07-7.43-9.2-11.26c-5.56,3.62-1.84,9.4-3.44,13.92
		c-0.11,0.05-0.35,0.22-0.6,0.26c-4.63,0.8-4.97,0.51-4.98-4.23c-0.02-9.18,0.06-18.37-0.12-27.54c-0.05-2.8,1.4-2.66,3.23-2.73
		c1.96-0.08,3.01,0.3,2.9,2.74c-0.19,4-0.05,8.02-0.05,12.67c1-0.94,1.64-1.48,2.22-2.1c3.21-3.43,6.61-6.7,9.55-10.37
		c2.66-3.32,5.83-2.99,9.68-2.01c-4.66,4.92-9.33,9.85-14.26,15.06C416.66,278.45,421.57,284.36,426.54,290.36z"/>
	<path d="M440.21,253.35c2.64,11.34,8.27,20.55,17.86,27.64c-2.49,1.16-4.98,1.27-7.48,1.24c-0.33,0-0.69-0.38-0.98-0.65
		c-6.93-6.25-11.3-13.87-13.32-22.73c-0.27-1.17-0.14-2.18,0.98-2.99C438.21,255.2,439.02,254.38,440.21,253.35z"/>
	<path d="M392.68,262.05c-0.54,0.69-0.99,1.25-1.43,1.82c-1.6,2.1-2.94,2.55-5.24,0.42c-4.18-3.87-10.29-3.55-14.41,0.17
		c-4.05,3.65-5.03,10.81-2.17,15.73c2.8,4.81,8.58,6.87,13.72,4.83c0.92-0.36,1.81-0.87,2.61-1.47c3.74-2.81,4.22-2.74,7.18,1.22
		c-5.2,7.83-17.32,9.26-24.89,2.94c-7.75-6.47-8.58-18.66-1.78-26.29C373.03,253.85,385.4,254.03,392.68,262.05z"/>
	<path d="M262.41,257.31c-0.49,0.9-0.91,1.8-1.44,2.63c-3.23,5.08-6.58,10.09-9.68,15.25c-0.84,1.4-1.3,3.22-1.4,4.88
		c-0.21,3.53-0.06,7.07-0.06,10.82c-2.04,0-3.79,0-5.9,0c0-3.92,0.11-7.64-0.06-11.34c-0.06-1.4-0.52-2.94-1.23-4.13
		c-3.33-5.57-6.83-11.03-10.24-16.55c-0.32-0.52-0.5-1.13-0.75-1.71c3.88-1.59,6.1-0.92,8.1,2.31c2.29,3.7,4.58,7.4,7.13,11.51
		c0.7-0.95,1.3-1.68,1.8-2.48c1.88-2.97,3.76-5.95,5.59-8.96C256.3,256.19,258.28,255.58,262.41,257.31z"/>
	<path d="M280.69,290.85c-1.26,0.11-2.22,0.17-3.19,0.27c-2.07,0.21-2.83-0.64-2.81-2.88c0.1-7.86,0-15.72-0.02-23.58
		c0-0.74,0-1.48,0-2.67c-2.51,0-4.91-0.14-7.29,0.04c-2.28,0.17-2.98-0.78-3.05-3.05c-0.07-2.33,1.02-2.54,2.81-2.53
		c7.14,0.06,14.27,0.07,21.41-0.03c1.93-0.03,2.79,0.45,2.71,2.65c-0.07,2.03-0.44,3.13-2.73,2.95c-2.5-0.2-5.03-0.05-7.86-0.05
		C280.69,271.67,280.69,281.15,280.69,290.85z"/>
	<path d="M432.02,262.55c1.93,7.23,5.36,13.33,10.33,18.98c-4.06-0.52-7.38-1.74-10-4.71c-0.82,0.64-1.6,1.28-2.42,1.87
		c-0.78,0.57-1.75,1.1-2.43,0.11c-0.23-0.34,0.24-1.52,0.74-1.84c2.15-1.42,2.98-2.94,2.05-5.56
		C429.33,268.68,430.2,265.55,432.02,262.55z"/>
	<path d="M477.62,269.8c-7.1-0.78-12-4.05-15.64-9.15c-0.24-0.33,0.2-1.1,0.32-1.66c0.54,0.11,1.25,0.05,1.59,0.36
		c1.22,1.13,2.25,2.43,3.45,3.58c2.75,2.63,6.15,4.01,9.98,4.59c0.58,0.09,1.07,0.69,1.61,1.06
		C478.42,269.05,477.92,269.52,477.62,269.8z"/>
	<path d="M461.06,283.37c1.43-1.24,2.55-1.17,3.96-0.05c3.46,2.76,5.58,6.03,5.15,10.46c-0.05,0.53-0.17,1.2-0.53,1.53
		c-0.35,0.32-1.07,0.41-1.59,0.34c-0.26-0.03-0.67-0.69-0.6-1c1.03-5.05-1.88-8.14-5.79-10.77
		C461.47,283.76,461.31,283.58,461.06,283.37z"/>
	<path d="M438.99,284.46c2.62-0.09,2.73,0.1,2.56,2.34c-0.21,2.88-1.08,5.53-2.85,7.84c-0.43,0.57-1.39,1.01-2.14,1.05
		c-0.91,0.05-1.46-0.71-0.78-1.5C438.24,291.34,438.85,287.97,438.99,284.46z"/>
	<path d="M480.48,237.57c0,1.69-1.15,3.12-2.54,3.16c-1.36,0.04-2.62-1.47-2.59-3.1c0.03-1.66,1.24-3.04,2.68-3.04
		C479.41,234.6,480.48,235.9,480.48,237.57z"/>
</g>
</svg>
