<?xml version="1.0" encoding="UTF-8"?>
<svg id="Capa_1" data-name="Capa 1" xmlns="http://www.w3.org/2000/svg" viewBox="0 0 383.22 59.74">
  <path d="M349.48,24.7c-1.97,.53-3.93,1.09-5.91,1.56-.77,.18-1.64,.32-2.4,.17-3.63-.68-7.13-1.73-10.2-3.88-2.33-1.63-3.96-3.73-4.14-6.66-.29-4.69,4.02-8.08,8.69-6.87,2.34,.61,4.34,1.88,6.16,3.4,3.51,2.92,6.38,6.4,8.98,10.12,.18,.26,.33,.54,.46,.82,.56,1.18,.23,1.66-1.1,1.63-.16,0-.32,0-.47,0l-.07-.28Z"/>
  <path d="M366.52,4.62c.98,.33,1.6,.52,2.21,.75,5.33,2.02,8.71,7.7,8.01,13.44-.67,5.53-5.15,9.98-10.81,10.73-5.76,.76-11.4-2.92-13.22-8.64-2.03-6.37,1.15-13.06,7.39-15.51,.66-.26,1.36-.64,2.02-.6,1.69,.11,2.73-.76,3.86-1.82,1.97-1.85,4.45-2.61,7.14-2.6,.27,0,.53,.39,.8,.61-.29,.28-.53,.7-.87,.81-1.31,.39-2.7,.55-3.97,1.04-.86,.33-1.56,1.07-2.58,1.8Zm8.27,9.35c-.79,.5-1.36,.83-1.89,1.21-1.32,.94-2.66,1.15-4.22,.48-2.35-1-4.74-1.94-7.17-2.74-2.21-.73-4.05,.01-5.33,1.94-1.66,2.49-1.64,5.11-.37,7.72,2.9,5.97,11.2,7.25,16.05,2.45,3.02-2.99,4.01-6.6,2.93-11.06Z"/>
  <path d="M364.88,37.56c0-1.53-.02-2.94,0-4.33,.01-.63,.33-.97,1.05-.97,5.41,.02,10.81,.01,16.22,0,.77,0,1.06,.35,1.05,1.07,0,4.74,0,9.49,0,14.23,0,.79-.4,1.12-1.18,1.12-5.33,0-10.66,0-15.98-.01-.71,0-1.12-.31-1.1-1.06,0-.08,0-.16,0-.24,.03-1.02-.3-2.27,.19-2.97,.36-.51,1.78-.29,2.73-.38,1.83-.18,3.19-1.21,3.5-2.67,.27-1.22-.43-2.71-1.66-3.36-.47-.25-1.04-.38-1.57-.41-.98-.06-1.97-.02-3.27-.02Zm9.29-1.29s0,.01,0,.02c.83,0,1.65-.02,2.48,0,.76,.03,1.34-.35,1.25-1.04-.05-.41-.69-1.04-1.1-1.06-1.8-.11-3.62-.1-5.42,.02-.41,.03-.78,.67-1.16,1.03,.41,.34,.79,.9,1.25,.99,.88,.16,1.8,.05,2.71,.05Z"/>
  <path d="M350,18.26c-3.92-4.8-7.76-9.22-13.65-11.06,.64-4.69,3.5-7.39,7.58-7.18,2.32,.12,4.27,1.08,5.82,2.77,.68,.75,1.23,1.62,1.79,2.47,1.06,1.64,1.58,3.16,.22,5.08-1.33,1.87-1.6,4.22-1.69,6.52-.01,.37-.04,.75-.07,1.39Z"/>
  <path d="M349.04,26.91c1.68,7.91,5.36,13.75,13.16,16.53-1.36,1.53-2.79,2.82-4.52,3.75-.22,.12-.7-.02-.96-.19-6.79-4.21-10.73-10.33-12.26-18.06-.05-.28,.19-.84,.4-.91,1.36-.43,2.75-.76,4.18-1.13Z"/>
  <path d="M74.79,24.68c3.62-.87,5.75,.48,7.63,3.27,3.83,5.68,7.97,11.13,11.99,16.66,.57,.79,1.22,1.52,1.83,2.27,.25-.07,.49-.14,.74-.21,0-1.26,0-2.52,0-3.78,0-5.52,.05-11.05-.01-16.57-.03-2.25,1.39-2.09,2.73-1.92,1.3,.16,3.36-.94,3.35,1.86,0,10.66,0,21.33,0,31.89-3.87,1.51-5.35,1.08-7.59-2.02-4.07-5.61-8.15-11.22-12.24-16.81-.63-.86-1.32-1.68-2.61-2.36,0,4.06,0,8.12,0,12.18,0,2.15-.16,4.32,.05,6.46,.27,2.77-.79,3.78-3.37,3.37-.78-.12-1.59-.14-2.49-.22V24.68Z"/>
  <path d="M68.5,41.71c.15,9.88-7.51,17.77-17.43,17.97-9.54,.19-17.37-7.65-17.53-17.54-.16-10.18,7.33-18.3,16.97-18.39,10.15-.1,17.83,7.58,17.99,17.97Zm-6.13,.24c.11-6.88-4.66-12.23-11.07-12.42-6.5-.19-11.66,5.13-11.69,12.06-.03,6.87,4.78,12.14,11.21,12.27,6.38,.13,11.45-5.09,11.55-11.91Z"/>
  <path d="M218.98,46.48c2.99,3.98,5.91,7.85,8.87,11.79-4.55,1.55-6.38,1.05-8.87-2.31-1.38-1.86-2.99-3.58-4.05-5.62-1.84-3.54-4.57-4.05-8.31-3.11,0,2.48,0,5.06,0,7.65q0,4.19-3.99,4.09c-.53-.01-1.06-.1-1.8-.17-.08-.88-.21-1.68-.21-2.48-.04-9.65,0-19.29-.12-28.94-.03-2.23,.47-3.19,2.84-3.07,3.88,.2,7.77,.04,11.66,.07,6.2,.05,10.41,3.11,11.65,8.42,1.33,5.68-.87,9.85-6.86,13-.16,.08-.28,.23-.81,.67Zm-12.3-5.22c3.39,0,6.65,.26,9.84-.08,2.82-.3,4.45-2.87,4.34-5.87-.11-2.94-1.77-5.1-4.6-5.31-3.12-.24-6.27-.05-9.58-.05v11.32Z"/>
  <path d="M5.71,38.73h15.69v-13.88c.86-.18,1.45-.38,2.06-.4,3.97-.16,4-.13,4,4.09,.02,8.9,.03,17.8,.03,26.71,0,3.93-.13,4.05-3.98,3.7-.53-.05-1.06-.16-1.86-.29v-13.9H5.83v14.07c-2.02,.1-3.77,.19-5.83,.29V24.71c.21-.08,.45-.25,.7-.27q5.03-.28,5.01,4.92c0,3.06,0,6.12,0,9.36Z"/>
  <path d="M265.09,58.32c-4.37,1.72-6.05,1.25-7.46-2.83-1.04-3-2.62-3.93-5.59-3.66-3.32,.3-6.69,.19-10.03,.05-1.73-.08-2.74,.49-3.18,2.2-.05,.18-.14,.35-.21,.52q-2.18,5.03-7.95,3.95c.08-.41,.1-.85,.26-1.22,4.28-10.12,8.59-20.22,12.86-30.34,.69-1.62,1.33-2.95,3.5-2.7,2.12,.25,4.09-.17,5.21,2.72,4.05,10.5,8.38,20.88,12.61,31.31Zm-22.83-12.08h11.53c-1.88-4.72-3.63-9.11-5.38-13.5-.23,0-.46,.02-.69,.03-1.78,4.39-3.55,8.77-5.46,13.47Z"/>
  <path d="M116.58,29.84v9.08h15.7v5.43h-15.65v9.22c4.52,0,8.93,0,13.34,0q4.35,0,3.83,5.1h-23.32c0-1.3,0-2.5,0-3.7-.01-9.27,.03-18.55-.07-27.82-.02-2.09,.58-2.78,2.61-2.75,6.24,.1,12.48,.09,18.72,0,1.89-.03,2.53,.62,2.49,2.59-.04,1.96-.53,2.93-2.62,2.89-4.95-.1-9.9-.03-15.02-.03Z"/>
  <path d="M331.49,58.28c-4.54,1.59-7.08,.95-9.79-2.34-3.05-3.7-6.07-7.43-9.2-11.26-5.56,3.62-1.84,9.4-3.44,13.92-.11,.05-.35,.22-.6,.26-4.63,.8-4.97,.51-4.98-4.23-.02-9.18,.06-18.37-.12-27.54-.05-2.8,1.4-2.66,3.23-2.73,1.96-.08,3.01,.3,2.9,2.74-.19,4-.05,8.02-.05,12.67,1-.94,1.64-1.48,2.22-2.1,3.21-3.43,6.61-6.7,9.55-10.37,2.66-3.32,5.83-2.99,9.68-2.01-4.66,4.92-9.33,9.85-14.26,15.06,5,6.03,9.91,11.94,14.88,17.94Z"/>
  <path d="M340.16,30.17c1.77,7.92,5.53,14.35,11.94,19.3-1.67,.81-3.33,.89-5,.87-.22,0-.46-.27-.66-.45-4.64-4.37-7.55-9.69-8.91-15.87-.18-.82-.09-1.52,.66-2.09,.62-.47,1.17-1.04,1.96-1.76Z"/>
  <path d="M297.63,29.97c-.54,.69-.99,1.25-1.43,1.82-1.6,2.1-2.94,2.55-5.24,.42-4.18-3.87-10.29-3.55-14.41,.17-4.05,3.65-5.03,10.81-2.17,15.73,2.8,4.81,8.58,6.87,13.72,4.83,.92-.36,1.81-.87,2.61-1.47,3.74-2.81,4.22-2.74,7.18,1.22-5.2,7.83-17.32,9.26-24.89,2.94-7.75-6.47-8.58-18.66-1.78-26.29,6.76-7.58,19.13-7.41,26.41,.62Z"/>
  <path d="M167.35,25.23c-.49,.9-.91,1.8-1.44,2.63-3.23,5.08-6.58,10.09-9.68,15.25-.84,1.4-1.3,3.22-1.4,4.88-.21,3.53-.06,7.07-.06,10.82h-5.9c0-3.92,.11-7.64-.06-11.34-.06-1.4-.52-2.94-1.23-4.13-3.33-5.57-6.83-11.03-10.24-16.55-.32-.52-.5-1.13-.75-1.71,3.88-1.59,6.1-.92,8.1,2.31,2.29,3.7,4.58,7.4,7.13,11.51,.7-.95,1.3-1.68,1.8-2.48,1.88-2.97,3.76-5.95,5.59-8.96,2.04-3.35,4.02-3.97,8.14-2.24Z"/>
  <path d="M185.64,58.77c-1.26,.11-2.22,.17-3.19,.27-2.07,.21-2.83-.64-2.81-2.88,.1-7.86,0-15.72-.02-23.58,0-.74,0-1.48,0-2.67-2.51,0-4.91-.14-7.29,.04-2.28,.17-2.98-.78-3.05-3.05-.07-2.33,1.02-2.54,2.81-2.53,7.14,.06,14.27,.07,21.41-.03,1.93-.03,2.79,.45,2.71,2.65-.07,2.03-.44,3.13-2.73,2.95-2.5-.2-5.03-.05-7.86-.05v28.89Z"/>
  <path d="M334.68,36.6c1.29,5.05,3.59,9.31,6.9,13.25-2.72-.36-4.94-1.21-6.69-3.29-.55,.44-1.07,.89-1.62,1.31-.52,.4-1.17,.77-1.62,.07-.16-.24,.16-1.06,.49-1.29,1.44-.99,1.99-2.05,1.37-3.88-.64-1.89-.05-4.07,1.16-6.17Z"/>
  <path d="M365.18,41.66c-4.75-.54-8.02-2.83-10.46-6.39-.16-.23,.13-.77,.21-1.16,.36,.08,.84,.03,1.06,.25,.81,.79,1.51,1.7,2.31,2.5,1.84,1.84,4.11,2.8,6.67,3.21,.39,.06,.72,.49,1.07,.74-.34,.33-.68,.66-.87,.85Z"/>
  <path d="M354.11,51.14c.95-.87,1.7-.82,2.64-.04,2.32,1.93,3.73,4.21,3.44,7.31-.04,.37-.11,.84-.35,1.07-.23,.22-.72,.28-1.07,.24-.17-.02-.45-.49-.4-.7,.69-3.52-1.26-5.68-3.87-7.52-.13-.09-.23-.21-.4-.36Z"/>
  <path d="M339.34,51.9c1.75-.07,1.82,.07,1.71,1.63-.14,2.01-.72,3.86-1.9,5.48-.29,.39-.93,.7-1.43,.73-.61,.03-.97-.5-.52-1.05,1.64-1.99,2.05-4.35,2.14-6.79Z"/>
  <path d="M367.09,19.16c0,1.18-.77,2.18-1.7,2.21-.91,.03-1.75-1.02-1.73-2.16,.02-1.16,.83-2.12,1.79-2.12,.93,0,1.64,.91,1.64,2.08Z"/>
</svg>