<?xml version="1.0" standalone="no"?>
<!DOCTYPE svg PUBLIC "-//W3C//DTD SVG 20010904//EN"
 "http://www.w3.org/TR/2001/REC-SVG-20010904/DTD/svg10.dtd">
<svg version="1.0" xmlns="http://www.w3.org/2000/svg"
 width="1024.000000pt" height="1024.000000pt" viewBox="0 0 1024.000000 1024.000000"
 preserveAspectRatio="xMidYMid meet">

<g transform="translate(0.000000,1024.000000) scale(0.100000,-0.100000)"
fill="#000000" stroke="none">
<path d="M0 5120 l0 -5120 5120 0 5120 0 0 5120 0 5120 -5120 0 -5120 0 0
-5120z m4697 2151 c82 -39 142 -103 199 -214 l47 -90 -36 -66 c-45 -84 -75
-184 -84 -284 l-8 -79 -52 64 c-84 104 -231 245 -309 297 -40 27 -104 62 -143
77 -64 27 -70 31 -64 54 16 77 26 103 56 146 85 128 243 165 394 95z m1128 -6
c0 -29 -2 -30 -72 -41 -83 -14 -145 -39 -190 -78 -38 -32 -42 -46 -12 -46 49
0 173 -72 239 -139 148 -151 199 -357 135 -548 -125 -372 -580 -485 -856 -213
-105 104 -159 234 -159 385 1 100 12 151 55 241 73 152 217 256 391 284 60 10
73 16 123 62 86 79 215 130 316 125 26 -2 30 -6 30 -32z m-1563 -359 c111 -45
172 -90 308 -226 127 -127 256 -283 294 -358 16 -30 14 -72 -2 -72 -114 -2
-182 -13 -260 -39 -49 -17 -101 -31 -115 -31 -48 0 -258 60 -334 95 -208 96
-306 216 -307 375 -1 62 4 84 26 126 77 147 226 196 390 130z m545 -838 c40
-164 133 -329 246 -435 69 -66 131 -105 219 -139 l69 -27 -43 -45 c-24 -24
-71 -64 -105 -89 l-63 -45 -81 57 c-152 107 -274 247 -351 398 -44 89 -103
259 -113 328 l-7 45 69 22 c37 11 84 21 103 21 l35 1 22 -92z m-362 -178 c32
-117 94 -249 169 -363 61 -93 187 -233 255 -282 22 -16 41 -33 41 -37 0 -12
-99 -36 -163 -41 l-58 -4 -76 81 c-159 171 -261 365 -318 606 l-15 65 62 58
c60 56 63 58 69 35 4 -13 19 -66 34 -118z m1773 -294 c2 -265 -1 -341 -10
-348 -16 -10 -729 -10 -744 0 -6 4 -14 48 -18 98 l-7 91 88 5 c101 5 144 23
173 71 24 39 25 78 3 124 -26 56 -64 73 -164 73 l-86 0 -7 38 c-10 63 -7 167
6 180 9 9 104 12 388 10 l375 -3 3 -339z m-1079 185 c98 -101 181 -148 278
-160 68 -8 83 -15 83 -40 0 -72 -173 -41 -318 57 -60 42 -147 131 -173 178
-12 23 -11 27 6 40 10 8 23 14 28 14 6 0 49 -40 96 -89z m-930 -133 c49 -149
129 -296 224 -410 43 -53 40 -55 -46 -33 -75 19 -126 46 -171 89 l-37 34 -32
-27 c-61 -53 -97 -61 -112 -23 -4 12 10 33 50 71 l57 54 -14 46 c-20 69 -15
176 11 244 12 31 26 57 30 57 4 0 22 -46 40 -102z m897 -508 c74 -58 124 -137
144 -226 23 -103 -23 -190 -73 -139 -12 12 -13 22 -5 51 21 79 -29 187 -122
260 -33 26 -60 50 -60 54 0 9 40 28 61 29 9 1 34 -13 55 -29z m-663 -40 c12 0
-2 -125 -20 -180 -20 -61 -73 -149 -95 -156 -23 -7 -58 12 -58 32 0 8 11 30
25 49 39 50 65 135 65 209 l0 64 38 -9 c20 -5 41 -9 45 -9z m2073 -436 c4 -15
2 -30 -5 -37 -14 -14 -2744 -18 -2773 -4 -21 9 -23 38 -6 55 9 9 333 12 1395
12 l1383 0 6 -26z m-3358 -514 c68 -29 144 -112 167 -181 24 -73 17 -188 -15
-253 -54 -106 -166 -171 -296 -171 -125 1 -243 78 -289 189 -25 60 -30 154
-12 217 55 187 261 279 445 199z m4288 1 c52 -23 114 -67 114 -80 0 -11 -61
-71 -72 -71 -5 0 -26 13 -46 29 -74 59 -164 63 -245 11 -59 -37 -87 -95 -87
-179 0 -135 92 -220 226 -209 49 4 75 17 149 72 12 9 85 -40 85 -57 0 -17 -67
-70 -120 -95 -77 -37 -190 -37 -270 0 -176 81 -239 290 -137 458 63 104 159
154 284 146 42 -2 91 -13 119 -25z m-5258 -113 l3 -128 144 0 145 0 0 130 0
130 39 0 c76 0 71 22 71 -310 0 -294 0 -299 -21 -305 -11 -4 -36 -4 -55 0
l-34 6 0 124 0 125 -145 0 -145 0 0 -124 c0 -138 1 -136 -71 -136 l-39 0 0
311 0 310 53 -3 52 -3 3 -127z m1370 115 c11 -10 81 -100 156 -200 75 -101
141 -183 146 -183 6 0 10 76 10 201 l0 200 53 -3 52 -3 3 -301 2 -302 -27 -4
c-66 -9 -76 0 -213 182 -191 252 -170 250 -170 17 l0 -197 -24 -6 c-13 -3 -37
-4 -52 -2 l-29 3 -3 308 -2 307 39 0 c23 0 47 -7 59 -17z m990 -30 l-3 -48
-157 -3 -158 -3 0 -79 0 -80 146 0 145 0 -3 -47 -3 -48 -142 -3 -143 -3 0 -79
0 -80 160 0 160 0 0 -44 c0 -31 -5 -46 -16 -50 -20 -8 -378 -8 -398 0 -14 5
-16 42 -16 310 l0 304 216 0 215 0 -3 -47z m242 -75 c44 -68 85 -123 92 -123
7 0 47 54 89 120 l76 120 52 3 c38 2 53 -1 57 -12 3 -8 -41 -83 -108 -183
l-113 -168 -5 -125 -5 -125 -29 -3 c-15 -2 -39 -1 -52 2 -24 6 -24 8 -24 128
l0 121 -110 172 c-60 94 -110 177 -110 183 0 8 19 12 55 12 l56 0 79 -122z
m905 112 c4 -6 4 -29 0 -50 l-7 -40 -94 0 -94 0 -2 -257 -3 -258 -29 -3 c-15
-2 -39 -1 -52 2 l-24 6 0 255 0 255 -89 0 c-72 0 -90 3 -95 16 -8 21 -8 69 1
77 11 12 481 8 488 -3z m426 -1 c53 -18 99 -58 120 -103 22 -49 24 -126 4
-165 -17 -33 -92 -101 -112 -101 -25 0 -13 -23 68 -123 87 -110 88 -115 8
-116 -47 -1 -57 7 -142 119 l-72 95 -53 3 -52 3 0 -105 c0 -103 -1 -106 -24
-112 -13 -3 -37 -4 -52 -2 l-29 3 -3 308 -2 307 153 0 c89 0 168 -5 188 -11z
m605 -26 c124 -289 233 -561 229 -571 -3 -9 -20 -12 -52 -10 l-48 3 -29 63
-30 62 -148 0 -149 0 -30 -66 -30 -67 -51 6 c-28 4 -53 8 -55 11 -2 2 38 100
90 217 52 118 112 253 132 302 l37 87 59 0 c58 0 59 0 75 -37z m1054 -101 l5
-132 135 135 135 135 57 0 c40 0 58 -4 58 -13 0 -7 -56 -68 -125 -137 -69 -69
-125 -129 -125 -135 0 -5 60 -80 134 -165 145 -167 146 -168 59 -169 -52 -1
-71 15 -188 153 l-88 106 -29 -27 c-27 -26 -28 -30 -28 -125 0 -94 -1 -98 -24
-104 -13 -3 -37 -4 -52 -2 l-29 3 -3 295 c-1 162 0 301 3 308 3 9 20 12 52 10
l48 -3 5 -133z m-1746 -799 c101 -72 102 -208 3 -287 -81 -65 -215 -39 -265
52 -28 51 -31 125 -7 176 44 93 179 122 269 59z m-2676 -145 c-3 -155 -5 -173
-20 -176 -17 -3 -18 10 -18 172 0 170 1 176 20 176 20 0 20 -5 18 -172z m335
52 c128 -167 117 -166 117 -12 0 125 1 132 20 132 19 0 20 -7 20 -170 0 -93
-2 -170 -4 -170 -2 0 -11 -2 -18 -5 -10 -4 -49 40 -119 132 l-104 138 -3 -138
c-2 -129 -4 -137 -22 -137 -19 0 -20 8 -20 176 l0 175 22 -3 c15 -2 52 -42
111 -118z m411 -10 c33 -72 62 -133 66 -135 4 -2 32 55 62 128 46 109 60 133
78 135 29 5 29 5 -51 -185 -35 -84 -70 -155 -78 -158 -22 -9 -32 8 -99 156
-74 166 -81 189 -55 189 15 0 32 -29 77 -130z m624 113 c-3 -16 -17 -18 -101
-21 l-98 -3 3 -52 3 -52 85 -5 c70 -4 85 -8 88 -22 3 -16 -6 -18 -88 -18 l-91
0 3 -57 3 -58 98 -3 c87 -2 98 -5 95 -20 -3 -14 -18 -17 -98 -19 -154 -4 -140
-21 -140 177 l0 170 121 0 c109 0 120 -2 117 -17z m316 -108 c53 -69 100 -125
105 -125 4 0 7 55 7 123 -1 120 -1 122 22 125 l22 3 -2 -173 c-4 -218 -6 -219
-115 -77 -43 55 -89 117 -103 137 l-25 36 -5 -135 c-4 -117 -7 -134 -22 -137
-17 -3 -18 10 -18 172 0 223 1 224 134 51z m586 110 c0 -10 -15 -15 -57 -17
l-58 -3 -5 -155 c-4 -129 -8 -155 -20 -155 -12 0 -16 26 -20 155 l-5 155 -57
3 c-43 2 -58 7 -58 17 0 12 24 15 140 15 116 0 140 -3 140 -15z m886 -17 c50
-49 30 -140 -35 -168 l-31 -12 46 -58 c43 -55 49 -80 20 -80 -7 0 -35 28 -62
63 -59 76 -62 78 -99 75 -29 -3 -30 -4 -33 -65 -3 -61 -21 -88 -39 -60 -4 7
-10 86 -11 175 l-4 164 111 -4 c104 -3 112 -5 137 -30z m234 -33 c25 -36 50
-72 56 -82 10 -14 19 -5 68 65 38 54 64 82 77 82 10 0 19 -3 19 -6 0 -11 -25
-51 -74 -119 -48 -66 -51 -73 -56 -145 -4 -58 -8 -75 -20 -75 -12 0 -16 17
-20 75 -5 72 -7 78 -63 155 -80 109 -83 115 -55 115 17 0 35 -18 68 -65z"/>
<path d="M5187 6760 c-50 -15 -95 -58 -124 -117 -24 -50 -28 -70 -28 -143 0
-73 4 -93 29 -145 77 -156 262 -253 433 -226 179 28 321 158 368 336 22 88 18
235 -7 235 -6 0 -36 -16 -67 -35 -88 -55 -109 -55 -242 0 -234 96 -303 114
-362 95z m332 -206 c54 -69 -8 -182 -79 -144 -12 6 -28 26 -35 44 -36 87 59
170 114 100z"/>
<path d="M5704 5850 c-29 -11 -35 -33 -18 -59 14 -20 24 -21 148 -21 118 0
135 2 150 19 20 22 10 54 -21 65 -23 9 -233 6 -259 -4z"/>
<path d="M2956 4065 c-55 -19 -87 -45 -113 -90 -43 -76 -38 -171 13 -246 56
-82 179 -107 268 -55 126 74 144 256 35 349 -63 54 -130 68 -203 42z"/>
<path d="M5890 3965 l0 -105 63 0 c146 1 192 28 192 111 0 43 -4 54 -28 75
-26 22 -37 24 -128 24 l-99 0 0 -105z"/>
<path d="M6597 3908 c-26 -62 -47 -116 -47 -120 0 -11 200 -10 200 1 0 16 -92
231 -99 231 -4 0 -28 -51 -54 -112z"/>
<path d="M5865 3211 c-50 -30 -68 -58 -73 -111 -4 -41 0 -56 19 -84 44 -65
129 -84 190 -43 93 62 87 189 -12 239 -44 23 -86 23 -124 -1z"/>
<path d="M6343 3223 c-18 -3 -22 -12 -25 -57 -5 -90 -6 -89 73 -84 82 6 109
25 109 74 0 24 -7 38 -22 48 -25 16 -100 27 -135 19z"/>
</g>
</svg>
