<?xml version="1.0" encoding="UTF-8"?>
<!DOCTYPE svg PUBLIC "-//W3C//DTD SVG 1.1//EN" "http://www.w3.org/Graphics/SVG/1.1/DTD/svg11.dtd">
<svg xmlns="http://www.w3.org/2000/svg" version="1.1" width="526px" height="526px" style="shape-rendering:geometricPrecision; text-rendering:geometricPrecision; image-rendering:optimizeQuality; fill-rule:evenodd; clip-rule:evenodd" xmlns:xlink="http://www.w3.org/1999/xlink">
<g><path style="opacity:0.909" fill="#000000" d="M 228.5,141.5 C 239.958,141.451 247.792,146.785 252,157.5C 252.667,160.5 252.667,163.5 252,166.5C 248.093,172.562 246.593,179.229 247.5,186.5C 246.448,186.649 245.448,186.483 244.5,186C 236.959,173.946 226.626,165.446 213.5,160.5C 214.022,150.384 219.022,144.051 228.5,141.5 Z"/></g>
<g><path style="opacity:0.859" fill="#000100" d="M 294.5,142.5 C 296.527,142.338 298.527,142.505 300.5,143C 301.517,144.049 301.684,145.216 301,146.5C 295.581,147.394 290.748,149.561 286.5,153C 305.869,161.581 312.369,176.081 306,196.5C 297.667,211.409 285.167,216.576 268.5,212C 252.262,202.967 246.762,189.467 252,171.5C 256.711,160.793 264.878,154.626 276.5,153C 281.71,147.917 287.71,144.417 294.5,142.5 Z M 265.5,173.5 C 267.857,173.337 270.19,173.503 272.5,174C 279.077,176.791 285.744,179.291 292.5,181.5C 296.143,181.232 299.31,179.899 302,177.5C 304.184,192.306 298.351,202.473 284.5,208C 269.492,209.503 260.825,202.836 258.5,188C 258.57,182.027 260.904,177.194 265.5,173.5 Z"/></g>
<g><path style="opacity:0.947" fill="#000000" d="M 205.5,162.5 C 213.412,162.526 220.412,165.026 226.5,170C 235.886,178.303 243.719,187.803 250,198.5C 250.667,199.5 250.667,200.5 250,201.5C 242.523,203.077 235.023,204.743 227.5,206.5C 218.116,205.206 209.449,202.04 201.5,197C 192.618,190.042 190.118,181.209 194,170.5C 196.961,166.34 200.795,163.673 205.5,162.5 Z"/></g>
<g><path style="opacity:0.759" fill="#000000" d="M 279.5,182.5 C 286.571,183.272 288.237,186.772 284.5,193C 278,194.5 275.5,192 277,185.5C 277.698,184.309 278.531,183.309 279.5,182.5 Z"/></g>
<g><path style="opacity:0.878" fill="#000000" d="M 239.5,206.5 C 241.5,206.5 243.5,206.5 245.5,206.5C 248.138,225.3 258.138,238.466 275.5,246C 272.143,250.373 267.976,253.54 263,255.5C 250.935,249.431 242.268,240.098 237,227.5C 234.124,221.525 232.957,215.359 233.5,209C 235.723,208.434 237.723,207.6 239.5,206.5 Z"/></g>
<g><path style="opacity:0.848" fill="#000100" d="M 222.5,213.5 C 223.497,213.47 224.164,213.97 224.5,215C 228.371,232.853 237.204,247.686 251,259.5C 251.688,260.332 251.521,260.998 250.5,261.5C 245.84,263.562 241.174,263.728 236.5,262C 224.959,250.089 218.459,235.923 217,219.5C 219.04,217.63 220.873,215.63 222.5,213.5 Z"/></g>
<g><path style="opacity:0.9" fill="#000000" d="M 280.5,218.5 C 294.171,218.333 307.837,218.5 321.5,219C 322,219.5 322.5,220 323,220.5C 323.667,232.833 323.667,245.167 323,257.5C 322.5,258 322,258.5 321.5,259C 307.833,259.667 294.167,259.667 280.5,259C 279.54,255.27 279.207,251.437 279.5,247.5C 283.747,247.822 287.747,246.989 291.5,245C 295.661,239.929 294.661,235.929 288.5,233C 285.518,232.502 282.518,232.335 279.5,232.5C 279.226,227.737 279.559,223.07 280.5,218.5 Z M 295.5,224.5 C 299.182,224.335 302.848,224.501 306.5,225C 307.357,225.689 308.023,226.522 308.5,227.5C 304.205,228.661 299.871,228.828 295.5,228C 294.316,226.855 294.316,225.688 295.5,224.5 Z"/></g>
<g><path style="opacity:0.755" fill="#000200" d="M 256.5,223.5 C 257.873,223.343 259.207,223.51 260.5,224C 266.015,231.591 273.349,236.424 282.5,238.5C 283.998,241.133 283.165,242.466 280,242.5C 269.667,241.156 261.667,236.156 256,227.5C 255.805,226.181 255.972,224.847 256.5,223.5 Z"/></g>
<g><path style="opacity:0.787" fill="#000100" d="M 209.5,229.5 C 210.5,229.5 211.5,229.5 212.5,229.5C 215.09,241.014 220.09,251.347 227.5,260.5C 221.364,261.678 216.03,260.012 211.5,255.5C 209.255,257.623 206.588,258.623 203.5,258.5C 202.889,255.039 204.056,252.372 207,250.5C 205.654,243.241 206.488,236.241 209.5,229.5 Z"/></g>
<g><path style="opacity:0.709" fill="#000100" d="M 255.5,262.5 C 262.029,262.836 266.529,266.169 269,272.5C 270.405,276.072 270.738,279.739 270,283.5C 268.599,285.192 266.766,285.859 264.5,285.5C 265.826,276.625 262.66,269.958 255,265.5C 254.53,264.423 254.697,263.423 255.5,262.5 Z"/></g>
<g><path style="opacity:0.7" fill="#000000" d="M 220.5,265.5 C 222.467,265.261 224.301,265.594 226,266.5C 227.267,273.198 225.767,279.198 221.5,284.5C 219.591,285.348 217.591,285.682 215.5,285.5C 215.88,282.255 217.047,279.255 219,276.5C 220.108,272.914 220.608,269.247 220.5,265.5 Z"/></g>
<g><path style="opacity:0.824" fill="#000100" d="M 186.5,289.5 C 236.834,289.333 287.168,289.5 337.5,290C 340.167,291.333 340.167,292.667 337.5,294C 287.167,294.667 236.833,294.667 186.5,294C 185.272,292.51 185.272,291.01 186.5,289.5 Z"/></g>
<g><path style="opacity:0.838" fill="#000100" d="M 144.5,317.5 C 163.052,318.222 169.885,327.555 165,345.5C 158.572,354.438 150.072,356.938 139.5,353C 131.16,347.324 128.327,339.49 131,329.5C 133.858,323.466 138.358,319.466 144.5,317.5 Z M 146.5,324.5 C 155.934,325.676 159.767,331.009 158,340.5C 153.859,348.145 148.192,349.479 141,344.5C 136.258,335.811 138.091,329.144 146.5,324.5 Z"/></g>
<g><path style="opacity:0.826" fill="#000100" d="M 378.5,317.5 C 385.634,317.109 391.634,319.442 396.5,324.5C 395.348,326.825 393.515,328.158 391,328.5C 388.483,327.493 385.983,326.326 383.5,325C 374.038,325.699 370.205,330.866 372,340.5C 373.913,344.585 377.08,346.918 381.5,347.5C 385.03,346.632 388.363,345.299 391.5,343.5C 397.641,345.623 397.975,348.456 392.5,352C 371.881,358.45 362.381,350.95 364,329.5C 366.94,323.047 371.774,319.047 378.5,317.5 Z"/></g>
<g><path style="opacity:0.824" fill="#000000" d="M 96.5,318.5 C 99.1194,318.232 101.619,318.565 104,319.5C 104.499,323.821 104.666,328.154 104.5,332.5C 108.833,332.5 113.167,332.5 117.5,332.5C 117.5,327.833 117.5,323.167 117.5,318.5C 120.167,318.5 122.833,318.5 125.5,318.5C 125.5,330.5 125.5,342.5 125.5,354.5C 123.208,354.756 121.041,354.423 119,353.5C 118.501,348.845 118.334,344.179 118.5,339.5C 113.833,339.5 109.167,339.5 104.5,339.5C 104.827,344.214 104.493,348.88 103.5,353.5C 101.253,354.374 98.9201,354.708 96.5,354.5C 96.5,342.5 96.5,330.5 96.5,318.5 Z"/></g>
<g><path style="opacity:0.825" fill="#000000" d="M 171.5,318.5 C 174.32,318.248 176.986,318.748 179.5,320C 183.633,326.433 188.133,332.599 193,338.5C 193.5,331.842 193.666,325.175 193.5,318.5C 196.167,318.5 198.833,318.5 201.5,318.5C 201.832,330.186 201.499,341.852 200.5,353.5C 197.207,354.969 194.373,354.302 192,351.5C 187.754,346.009 183.754,340.342 180,334.5C 179.667,340.5 179.333,346.5 179,352.5C 176.925,354.648 174.592,354.982 172,353.5C 171.5,341.838 171.333,330.171 171.5,318.5 Z"/></g>
<g><path style="opacity:0.831" fill="#000000" d="M 207.5,318.5 C 215.833,318.5 224.167,318.5 232.5,318.5C 232.5,320.5 232.5,322.5 232.5,324.5C 226.833,324.5 221.167,324.5 215.5,324.5C 215.5,327.5 215.5,330.5 215.5,333.5C 220.5,333.5 225.5,333.5 230.5,333.5C 230.5,335.5 230.5,337.5 230.5,339.5C 225.5,339.5 220.5,339.5 215.5,339.5C 215.5,342.167 215.5,344.833 215.5,347.5C 220.844,347.334 226.177,347.501 231.5,348C 232.406,349.699 232.739,351.533 232.5,353.5C 223.833,353.5 215.167,353.5 206.5,353.5C 206.189,341.753 206.522,330.086 207.5,318.5 Z"/></g>
<g><path style="opacity:0.796" fill="#000100" d="M 233.5,318.5 C 236.249,318.274 238.916,318.607 241.5,319.5C 243.934,323.382 246.601,327.048 249.5,330.5C 252.329,326.828 254.996,322.995 257.5,319C 269.729,318.72 282.063,318.554 294.5,318.5C 294.756,320.792 294.423,322.959 293.5,325C 290.525,325.044 287.525,324.877 284.5,324.5C 284.832,334.19 284.498,343.856 283.5,353.5C 281.298,354.78 279.132,354.78 277,353.5C 276.832,344.149 276.332,334.816 275.5,325.5C 272.895,324.964 270.228,324.798 267.5,325C 266.299,324.097 265.465,322.931 265,321.5C 261.333,327.5 257.667,333.5 254,339.5C 253.501,344.155 253.334,348.821 253.5,353.5C 250.833,353.5 248.167,353.5 245.5,353.5C 245.666,349.154 245.499,344.821 245,340.5C 241.73,334.236 238.064,328.236 234,322.5C 233.51,321.207 233.343,319.873 233.5,318.5 Z"/></g>
<g><path style="opacity:0.818" fill="#000000" d="M 297.5,318.5 C 304.175,318.334 310.842,318.5 317.5,319C 324.378,321.935 326.878,327.102 325,334.5C 323.328,337.337 321.161,339.67 318.5,341.5C 320.808,344.975 323.308,348.308 326,351.5C 326.688,352.332 326.521,352.998 325.5,353.5C 323.232,354.544 320.899,354.711 318.5,354C 314.978,349.481 311.145,345.315 307,341.5C 305.746,344.976 305.079,348.642 305,352.5C 302.925,354.648 300.592,354.982 298,353.5C 297.773,343.311 297.273,333.144 296.5,323C 296.773,321.467 297.106,319.967 297.5,318.5 Z M 308.5,324.5 C 310.801,325.06 313.134,325.56 315.5,326C 318.197,329.271 317.864,332.271 314.5,335C 311.518,335.498 308.518,335.665 305.5,335.5C 305.5,332.167 305.5,328.833 305.5,325.5C 306.791,325.737 307.791,325.404 308.5,324.5 Z"/></g>
<g><path style="opacity:0.814" fill="#000000" d="M 341.5,318.5 C 344.448,318.223 347.281,318.556 350,319.5C 354.598,330.46 359.098,341.46 363.5,352.5C 361.473,354.339 359.14,354.839 356.5,354C 354.904,350.952 352.737,348.452 350,346.5C 345.879,347.139 341.713,347.805 337.5,348.5C 336.61,354.067 333.61,355.733 328.5,353.5C 327.386,352.277 327.219,350.944 328,349.5C 332.515,339.141 337.015,328.807 341.5,318.5 Z M 344.5,330.5 C 346.881,332.912 348.548,335.912 349.5,339.5C 346.833,340.833 344.167,340.833 341.5,339.5C 342.801,336.573 343.801,333.573 344.5,330.5 Z"/></g>
<g><path style="opacity:0.822" fill="#000100" d="M 400.5,318.5 C 402.833,318.5 405.167,318.5 407.5,318.5C 407.334,322.846 407.501,327.179 408,331.5C 411.682,327.985 415.182,324.318 418.5,320.5C 422.084,318.123 425.75,317.957 429.5,320C 425.2,325.301 420.534,330.301 415.5,335C 420.737,340.4 425.403,346.234 429.5,352.5C 426.665,354.963 423.665,355.13 420.5,353C 416.709,349.22 413.042,345.387 409.5,341.5C 408.808,342.025 408.308,342.692 408,343.5C 407.667,346.833 407.333,350.167 407,353.5C 404.959,354.423 402.792,354.756 400.5,354.5C 399.206,342.458 399.206,330.458 400.5,318.5 Z"/></g>
</svg>
